<svg fill="#1F5400" xmlns="http://www.w3.org/2000/svg" xmlns:xlink="http://www.w3.org/1999/xlink" version="1.1" x="0px" y="0px" viewBox="0 0 100 100" enable-background="new 0 0 100 100" xml:space="preserve"><g><path d="M98.729,71.51l-12.8-11.324c-0.311-0.276-0.736-0.374-1.134-0.27l-8.471,2.234c-0.492,0.13-0.856,0.55-0.913,1.057   l-0.208,1.857l-4.223-1.035l-0.001-9.892l4.448,4.062l3.999-4.382L53.746,30.38L27.835,53.586l3.957,4.418l4.439-3.974l0.027,30.38   l7.561-0.001V67.928h7.27v16.481l19.894-0.001l-0.002-18.984l4.069,0.998l-0.614,5.495c-0.047,0.402,0.106,0.801,0.412,1.067   L87.52,84.103c0.233,0.206,0.524,0.307,0.815,0.307c0.341,0,0.678-0.14,0.922-0.413l9.575-10.737   c0.22-0.245,0.331-0.567,0.312-0.896C99.123,72.034,98.975,71.729,98.729,71.51z M51.089,61.143h-7.27v-7.499h7.27V61.143z    M63.651,61.143h-7.271v-7.499h7.271V61.143z M88.228,81.438l-11.267-9.886l0.511-4.538l1.89,0.464   c0.067,0.824,0.641,1.551,1.487,1.757c1.057,0.26,2.126-0.387,2.387-1.446c0.26-1.058-0.388-2.126-1.446-2.385   c-0.806-0.198-1.615,0.133-2.072,0.768l-2.094-0.515l0.15-1.332l7.012-1.852l11.378,10.065L88.228,81.438z"></path></g><rect x="13.353" y="34.025" width="4.837" height="4.836"></rect><rect x="20.608" y="34.025" width="4.837" height="4.836"></rect><rect x="27.863" y="34.025" width="4.837" height="4.836"></rect><rect x="6.027" y="41.29" width="4.837" height="4.837"></rect><rect x="13.282" y="41.29" width="4.837" height="4.837"></rect><rect x="20.538" y="41.29" width="4.836" height="4.837"></rect><rect x="27.792" y="41.29" width="4.837" height="4.837"></rect><rect x="6.098" y="48.545" width="4.837" height="4.836"></rect><rect x="13.353" y="48.545" width="4.837" height="4.836"></rect><rect x="20.608" y="48.545" width="4.837" height="4.836"></rect><path d="M12.841,23.177v-5.691c0-1.068-0.867-1.934-1.934-1.934c-1.068,0-1.934,0.865-1.934,1.934v5.691H12.841z"></path><path d="M29.769,23.177v-5.691c0-1.068-0.866-1.934-1.934-1.934c-1.067,0-1.934,0.865-1.934,1.934v5.691H29.769z"></path><path d="M25.445,55.944H5.227c-0.8,0-1.451-0.65-1.451-1.451V31.848c0-0.04,0.003-0.081,0.006-0.12h31.165  c0.003,0.04,0.006,0.08,0.006,0.12v8.77l2.902-2.646V23.173H0.873v0.004v31.316c0,2.4,1.953,4.354,4.354,4.354h20.218V55.944z   M25.904,26.623v-1.725v-1.721h3.862v1.721v1.725v0.069h-0.003c-0.037,1.034-0.884,1.862-1.928,1.862  c-1.043,0-1.891-0.828-1.928-1.862h-0.003V26.623z M8.973,26.623v-1.725v-1.721h3.862v1.721v1.725v0.069h-0.003  c-0.037,1.034-0.884,1.862-1.927,1.862c-1.043,0-1.892-0.828-1.928-1.862H8.973V26.623z"></path></svg>